<?xml version="1.0" standalone="no"?>
<!DOCTYPE svg PUBLIC "-//W3C//DTD SVG 20010904//EN"
 "http://www.w3.org/TR/2001/REC-SVG-20010904/DTD/svg10.dtd">
<svg version="1.0" xmlns="http://www.w3.org/2000/svg"
 width="1080.000000pt" height="1080.000000pt" viewBox="0 0 1080.000000 1080.000000"
 preserveAspectRatio="xMidYMid meet">
<metadata>
Created by potrace 1.16, written by Peter Selinger 2001-2019
</metadata>
<g transform="translate(0.000000,1080.000000) scale(0.100000,-0.100000)"
fill="#000000" stroke="none">
<path d="M0 5400 l0 -5400 5400 0 5400 0 0 5400 0 5400 -5400 0 -5400 0 0
-5400z m5414 4380 c261 -619 470 -1100 478 -1100 4 0 8 4 8 9 0 5 5 22 10 36
9 22 13 25 25 15 8 -7 17 -28 21 -47 l7 -35 33 59 c18 32 45 72 59 88 l25 30
-6 -50 c-5 -42 -34 -143 -59 -206 -5 -14 0 -16 38 -12 26 3 47 1 51 -5 8 -13
-47 -56 -95 -72 l-36 -13 37 -86 c48 -110 273 -605 335 -736 26 -55 64 -136
85 -180 184 -390 181 -386 282 -428 34 -14 37 -13 162 48 159 79 336 149 445
176 122 30 221 36 562 38 168 1 332 6 365 11 32 6 60 10 62 10 1 0 2 10 2 23
0 13 6 32 14 43 14 19 15 19 38 -3 l23 -22 24 45 c44 82 91 78 91 -8 0 -21 3
-38 6 -38 4 0 45 18 91 41 59 28 88 38 95 31 30 -30 -41 -155 -115 -201 -46
-28 -100 -88 -113 -126 -6 -17 -30 -77 -54 -135 -23 -58 -54 -136 -69 -175
-15 -38 -48 -110 -74 -158 -26 -49 -47 -95 -47 -103 0 -23 -38 -93 -97 -177
l-54 -78 53 7 53 7 -32 -30 c-18 -17 -33 -36 -33 -41 0 -6 -16 -31 -36 -57
-26 -34 -30 -45 -17 -41 45 13 89 16 103 6 13 -9 12 -13 -9 -30 -13 -11 -35
-23 -50 -26 -14 -4 -53 -32 -86 -64 -74 -71 -235 -197 -313 -243 -31 -20 -85
-45 -120 -56 -92 -31 -100 -39 -122 -109 -17 -60 -18 -69 -4 -140 13 -67 41
-127 216 -462 111 -212 234 -446 273 -520 40 -74 98 -184 130 -245 32 -60 61
-113 64 -118 4 -4 88 2 187 12 297 33 458 41 787 41 389 0 528 -15 797 -87
242 -64 476 -165 559 -239 59 -53 75 -94 74 -189 -2 -184 -119 -292 -576 -530
-290 -151 -438 -206 -772 -289 -135 -33 -407 -92 -548 -118 l-69 -13 124 -97
c67 -53 191 -151 273 -217 164 -132 149 -114 285 -367 92 -171 252 -467 275
-509 12 -22 38 -69 57 -105 19 -36 70 -129 112 -207 l78 -143 93 -54 c87 -52
160 -105 153 -112 -2 -1 -39 4 -83 11 -43 8 -81 13 -82 11 -2 -2 8 -24 23 -49
26 -48 23 -58 -12 -32 -29 22 -31 19 -24 -35 6 -49 6 -50 -13 -32 -11 9 -42
48 -69 87 l-49 70 -264 147 c-145 80 -308 170 -362 199 -150 80 -726 370 -828
416 -49 23 -124 57 -165 76 -81 37 -358 156 -480 205 -76 31 -92 37 -325 116
-71 24 -161 56 -200 71 -82 31 -370 114 -514 149 l-100 24 -173 -53 c-476
-148 -856 -328 -1129 -536 -159 -121 -337 -337 -445 -542 -35 -66 -70 -118
-89 -133 -76 -58 -189 -31 -233 56 -12 24 -22 56 -22 70 0 31 70 179 131 276
113 181 289 384 432 500 278 223 690 428 1177 585 91 29 169 56 173 59 5 4 12
72 17 151 7 118 5 173 -10 304 -18 148 -51 330 -64 342 -6 6 -956 -230 -1176
-293 -85 -24 -285 -86 -444 -136 l-288 -93 6 -101 c4 -56 11 -130 16 -165 5
-35 10 -101 10 -145 0 -80 -1 -82 -27 -92 -44 -16 -140 -41 -243 -62 -52 -12
-156 -38 -230 -59 -74 -22 -151 -42 -170 -46 -38 -7 -81 -20 -295 -91 -294
-96 -512 -181 -840 -326 -274 -121 -944 -458 -1285 -645 l-304 -168 -33 -85
c-18 -47 -61 -141 -95 -209 -54 -107 -63 -121 -66 -95 -5 38 14 156 38 235 11
34 18 65 16 67 -2 2 -36 -15 -76 -37 -39 -23 -74 -41 -76 -41 -3 0 9 25 26 56
17 31 29 58 27 60 -2 3 -20 -2 -39 -10 -55 -24 -161 -40 -204 -31 l-39 7 84
41 c47 22 126 55 175 72 l91 33 95 173 c53 96 111 201 130 234 43 77 380 688
380 689 0 1 -71 0 -157 -2 -182 -4 -272 8 -392 50 -103 36 -142 61 -202 124
-70 76 -82 119 -77 266 6 145 23 200 97 304 91 130 336 346 551 486 126 83
287 166 470 243 268 113 368 159 530 241 l165 85 41 77 c34 64 281 526 399
747 30 56 64 122 192 365 28 52 81 154 119 225 62 117 70 140 85 235 21 130
12 154 -83 213 -35 22 -54 21 -92 -2 -34 -21 -175 -71 -200 -71 -32 0 -15 28
32 52 31 16 55 38 69 64 13 21 23 42 23 46 0 4 -17 12 -38 18 -100 27 -196
138 -216 253 -6 32 -4 37 12 37 10 0 22 -4 28 -9 5 -4 24 -13 41 -19 l33 -11
-39 72 c-63 114 -89 242 -76 359 l7 59 41 -40 c22 -23 42 -39 44 -37 3 2 -7
26 -20 53 -36 71 -74 197 -87 293 -15 109 -50 248 -94 383 -20 58 -36 112 -36
119 0 15 -59 113 -112 185 -43 59 -46 73 -20 97 16 13 27 15 68 6 56 -11 193
-66 317 -128 5 -2 -1 13 -12 34 -21 39 -27 75 -14 87 8 8 47 -15 84 -50 l26
-24 -4 24 c-3 14 0 33 5 43 9 17 13 15 46 -19 19 -21 45 -64 57 -97 l22 -60
57 0 c78 0 328 -43 430 -75 47 -14 130 -40 185 -56 107 -33 205 -82 271 -135
23 -18 63 -49 90 -70 48 -36 116 -102 245 -239 90 -96 217 -177 509 -327 195
-100 490 -233 465 -210 -5 5 -73 57 -150 115 -200 150 -423 339 -625 529 -178
167 -340 338 -340 356 0 6 25 63 55 127 30 65 55 118 55 120 0 2 17 41 39 87
93 199 294 662 402 927 96 233 206 504 274 671 311 769 284 706 295 693 4 -4
55 -123 114 -263z"/>
<path d="M3659 5831 c-35 -35 -41 -80 -17 -128 12 -25 134 -104 383 -250 244
-144 245 -144 245 -152 0 -3 -37 -26 -82 -50 -46 -25 -141 -82 -211 -128 -70
-46 -131 -83 -135 -83 -11 0 -170 -95 -192 -115 -47 -42 -30 -129 32 -161 42
-22 75 -13 168 41 42 25 80 45 84 45 4 0 53 30 109 67 118 77 219 138 347 208
114 62 136 84 149 145 14 67 0 102 -57 142 -117 81 -241 159 -361 228 -72 41
-182 108 -243 148 -132 85 -169 92 -219 43z"/>
<path d="M6995 5817 c-97 -53 -198 -117 -225 -143 -21 -19 -103 -67 -240 -139
-146 -77 -255 -143 -271 -163 -28 -36 -25 -86 9 -121 25 -27 184 -135 437
-298 211 -135 340 -203 388 -203 70 0 117 68 94 137 -11 34 -22 43 -98 83
-123 65 -250 143 -452 279 l-88 59 148 78 c81 44 161 91 178 105 36 32 172
117 243 153 72 36 99 94 71 149 -34 66 -102 74 -194 24z"/>
<path d="M5574 5225 c-69 -29 -87 -114 -35 -166 16 -16 38 -29 48 -29 11 0 30
-11 42 -24 21 -22 21 -26 8 -58 -17 -41 -56 -68 -97 -68 -34 0 -50 26 -50 83
0 35 -23 68 -57 86 -57 29 -126 -5 -143 -71 -30 -110 -54 -135 -108 -113 -30
13 -32 17 -32 67 0 61 6 72 40 83 65 20 97 69 86 128 -19 99 -146 108 -249 17
-60 -53 -87 -123 -87 -223 0 -100 14 -142 67 -198 86 -92 217 -115 331 -58 60
30 61 30 94 12 23 -12 56 -17 113 -17 72 0 86 3 143 34 74 39 115 85 142 157
31 84 35 143 13 195 -52 116 -187 198 -269 163z"/>
<path d="M5240 4619 c-94 -10 -229 -54 -282 -92 -105 -75 -241 -221 -306 -329
l-22 -36 30 -30 c33 -33 38 -52 15 -52 -23 0 -18 -13 16 -46 17 -16 44 -56 60
-89 17 -33 24 -53 17 -45 -7 9 -43 37 -80 63 l-68 48 0 -58 c0 -75 -10 -92
-37 -64 l-20 22 -12 -57 c-6 -32 -11 -69 -11 -83 l-1 -26 -16 30 c-9 17 -22
45 -28 62 -11 30 -14 20 -63 -175 -48 -187 -96 -422 -88 -429 1 -2 49 13 107
32 267 91 648 198 1139 321 294 74 538 140 542 147 10 16 3 49 -37 173 -87
267 -251 503 -443 635 -67 47 -80 52 -165 64 -136 19 -175 22 -247 14z"/>
<path d="M8855 3862 c-85 -3 -442 -30 -506 -38 l-46 -6 30 -57 c16 -31 84
-157 150 -281 66 -124 136 -256 156 -293 29 -56 44 -73 79 -90 l42 -21 113 23
c180 36 422 99 557 143 176 59 641 296 745 381 l29 24 -33 17 c-65 34 -215 88
-339 122 -211 57 -369 76 -657 78 -137 0 -281 0 -320 -2z"/>
<path d="M1880 3356 c-285 -124 -345 -154 -480 -243 -134 -89 -242 -175 -354
-283 -121 -116 -146 -156 -146 -237 l0 -64 48 -20 c63 -28 179 -48 278 -49 90
0 371 52 390 73 16 18 507 917 503 921 -2 2 -110 -42 -239 -98z"/>
<path d="M7600 3345 c0 -2 22 -16 50 -30 86 -44 311 -175 440 -257 l124 -80
143 23 c79 13 140 26 136 29 -26 21 -354 153 -518 208 -62 21 -364 112 -371
112 -2 0 -4 -2 -4 -5z"/>
</g>
</svg>
